<mxfile host="app.diagrams.net" agent="Mozilla/5.0 (Windows NT 10.0; Win64; x64) AppleWebKit/537.36 (KHTML, like Gecko) Chrome/122.0.0.0 Safari/537.36 Edg/122.0.0.0" version="26.1.0">
  <diagram name="第 1 页" id="KbhACvy9-D4_QpwNJZh5">
    <mxGraphModel dx="1173" dy="771" grid="1" gridSize="10" guides="1" tooltips="1" connect="1" arrows="1" fold="1" page="1" pageScale="1" pageWidth="827" pageHeight="1169" math="0" shadow="0">
      <root>
        <mxCell id="0" />
        <mxCell id="1" parent="0" />
        <mxCell id="_qXWngsUIcWXwzMFPs5N-11" style="edgeStyle=orthogonalEdgeStyle;rounded=0;orthogonalLoop=1;jettySize=auto;html=1;" parent="1" source="_qXWngsUIcWXwzMFPs5N-1" target="_qXWngsUIcWXwzMFPs5N-2" edge="1">
          <mxGeometry relative="1" as="geometry">
            <mxPoint x="170" y="280" as="targetPoint" />
            <Array as="points">
              <mxPoint x="171" y="310" />
            </Array>
          </mxGeometry>
        </mxCell>
        <mxCell id="_qXWngsUIcWXwzMFPs5N-13" value="反馈" style="edgeLabel;html=1;align=center;verticalAlign=middle;resizable=0;points=[];" parent="_qXWngsUIcWXwzMFPs5N-11" vertex="1" connectable="0">
          <mxGeometry x="-0.0198" y="2" relative="1" as="geometry">
            <mxPoint x="-3" y="-12" as="offset" />
          </mxGeometry>
        </mxCell>
        <mxCell id="_qXWngsUIcWXwzMFPs5N-18" value="" style="edgeStyle=orthogonalEdgeStyle;rounded=0;orthogonalLoop=1;jettySize=auto;html=1;" parent="1" source="_qXWngsUIcWXwzMFPs5N-1" target="_qXWngsUIcWXwzMFPs5N-17" edge="1">
          <mxGeometry relative="1" as="geometry" />
        </mxCell>
        <mxCell id="_qXWngsUIcWXwzMFPs5N-19" value="社交分享" style="edgeLabel;html=1;align=center;verticalAlign=middle;resizable=0;points=[];" parent="_qXWngsUIcWXwzMFPs5N-18" vertex="1" connectable="0">
          <mxGeometry x="-0.1333" y="4" relative="1" as="geometry">
            <mxPoint x="4" y="-6" as="offset" />
          </mxGeometry>
        </mxCell>
        <mxCell id="_qXWngsUIcWXwzMFPs5N-23" value="" style="edgeStyle=orthogonalEdgeStyle;rounded=0;orthogonalLoop=1;jettySize=auto;html=1;" parent="1" source="_qXWngsUIcWXwzMFPs5N-1" target="_qXWngsUIcWXwzMFPs5N-21" edge="1">
          <mxGeometry relative="1" as="geometry">
            <Array as="points">
              <mxPoint x="380" y="370" />
              <mxPoint x="380" y="370" />
            </Array>
          </mxGeometry>
        </mxCell>
        <mxCell id="_qXWngsUIcWXwzMFPs5N-24" value="反馈APP情况" style="edgeLabel;html=1;align=center;verticalAlign=middle;resizable=0;points=[];" parent="_qXWngsUIcWXwzMFPs5N-23" vertex="1" connectable="0">
          <mxGeometry x="-0.1667" relative="1" as="geometry">
            <mxPoint x="-40" y="36" as="offset" />
          </mxGeometry>
        </mxCell>
        <mxCell id="_qXWngsUIcWXwzMFPs5N-1" value="狮山乐跑APP" style="rounded=0;whiteSpace=wrap;html=1;" parent="1" vertex="1">
          <mxGeometry x="340" y="290" width="120" height="60" as="geometry" />
        </mxCell>
        <mxCell id="_qXWngsUIcWXwzMFPs5N-2" value="健身用户" style="rounded=0;whiteSpace=wrap;html=1;" parent="1" vertex="1">
          <mxGeometry x="110" y="200" width="120" height="60" as="geometry" />
        </mxCell>
        <mxCell id="_qXWngsUIcWXwzMFPs5N-9" style="edgeStyle=orthogonalEdgeStyle;rounded=0;orthogonalLoop=1;jettySize=auto;html=1;entryX=0.383;entryY=0;entryDx=0;entryDy=0;entryPerimeter=0;" parent="1" edge="1">
          <mxGeometry relative="1" as="geometry">
            <mxPoint x="230" y="220" as="sourcePoint" />
            <mxPoint x="399.96000000000004" y="290" as="targetPoint" />
          </mxGeometry>
        </mxCell>
        <mxCell id="_qXWngsUIcWXwzMFPs5N-10" value="使用" style="edgeLabel;html=1;align=center;verticalAlign=middle;resizable=0;points=[];" parent="_qXWngsUIcWXwzMFPs5N-9" vertex="1" connectable="0">
          <mxGeometry x="-0.1111" y="-4" relative="1" as="geometry">
            <mxPoint x="-7" y="-14" as="offset" />
          </mxGeometry>
        </mxCell>
        <mxCell id="_qXWngsUIcWXwzMFPs5N-15" style="edgeStyle=orthogonalEdgeStyle;rounded=0;orthogonalLoop=1;jettySize=auto;html=1;entryX=0.25;entryY=1;entryDx=0;entryDy=0;" parent="1" source="_qXWngsUIcWXwzMFPs5N-14" target="_qXWngsUIcWXwzMFPs5N-1" edge="1">
          <mxGeometry relative="1" as="geometry">
            <mxPoint x="260" y="390" as="targetPoint" />
            <Array as="points">
              <mxPoint x="350" y="400" />
              <mxPoint x="350" y="350" />
            </Array>
          </mxGeometry>
        </mxCell>
        <mxCell id="_qXWngsUIcWXwzMFPs5N-16" value="反馈相应信息" style="edgeLabel;html=1;align=center;verticalAlign=middle;resizable=0;points=[];" parent="_qXWngsUIcWXwzMFPs5N-15" vertex="1" connectable="0">
          <mxGeometry x="-0.0561" y="2" relative="1" as="geometry">
            <mxPoint x="-20" y="-8" as="offset" />
          </mxGeometry>
        </mxCell>
        <mxCell id="_qXWngsUIcWXwzMFPs5N-14" value="穿戴设备" style="rounded=0;whiteSpace=wrap;html=1;" parent="1" vertex="1">
          <mxGeometry x="110" y="370" width="120" height="60" as="geometry" />
        </mxCell>
        <mxCell id="_qXWngsUIcWXwzMFPs5N-30" style="edgeStyle=orthogonalEdgeStyle;rounded=0;orthogonalLoop=1;jettySize=auto;html=1;exitX=0;exitY=0.75;exitDx=0;exitDy=0;entryX=1;entryY=0.75;entryDx=0;entryDy=0;" parent="1" source="_qXWngsUIcWXwzMFPs5N-17" target="_qXWngsUIcWXwzMFPs5N-1" edge="1">
          <mxGeometry relative="1" as="geometry" />
        </mxCell>
        <mxCell id="_qXWngsUIcWXwzMFPs5N-31" value="数据共享" style="edgeLabel;html=1;align=center;verticalAlign=middle;resizable=0;points=[];" parent="_qXWngsUIcWXwzMFPs5N-30" vertex="1" connectable="0">
          <mxGeometry x="0.0359" y="2" relative="1" as="geometry">
            <mxPoint y="13" as="offset" />
          </mxGeometry>
        </mxCell>
        <mxCell id="_qXWngsUIcWXwzMFPs5N-17" value="第三方" style="whiteSpace=wrap;html=1;rounded=0;" parent="1" vertex="1">
          <mxGeometry x="590" y="290" width="120" height="60" as="geometry" />
        </mxCell>
        <mxCell id="_qXWngsUIcWXwzMFPs5N-27" style="edgeStyle=orthogonalEdgeStyle;rounded=0;orthogonalLoop=1;jettySize=auto;html=1;exitX=0.75;exitY=0;exitDx=0;exitDy=0;entryX=0.75;entryY=1;entryDx=0;entryDy=0;" parent="1" source="_qXWngsUIcWXwzMFPs5N-21" target="_qXWngsUIcWXwzMFPs5N-1" edge="1">
          <mxGeometry relative="1" as="geometry" />
        </mxCell>
        <mxCell id="_qXWngsUIcWXwzMFPs5N-28" value="应用更新" style="edgeLabel;html=1;align=center;verticalAlign=middle;resizable=0;points=[];" parent="_qXWngsUIcWXwzMFPs5N-27" vertex="1" connectable="0">
          <mxGeometry x="-0.3436" y="-1" relative="1" as="geometry">
            <mxPoint x="29" as="offset" />
          </mxGeometry>
        </mxCell>
        <mxCell id="_qXWngsUIcWXwzMFPs5N-21" value="管理员" style="whiteSpace=wrap;html=1;rounded=0;" parent="1" vertex="1">
          <mxGeometry x="340" y="480" width="120" height="60" as="geometry" />
        </mxCell>
      </root>
    </mxGraphModel>
  </diagram>
</mxfile>
